<svg width="222" height="54" viewBox="0 0 222 54" fill="none" xmlns="http://www.w3.org/2000/svg">
<path d="M219.612 51.3884C222.111 48.889 222.12 44.8265 219.522 42.4291C205.676 29.6488 189.669 19.4029 172.229 12.1793C152.817 4.13852 132.011 -2.75532e-06 111 0C89.9885 2.75533e-06 69.1827 4.13853 49.7706 12.1793C32.3313 19.4029 16.3236 29.6488 2.47775 42.4291C-0.119568 44.8265 -0.110992 48.8891 2.38837 51.3884C4.88773 53.8878 8.93076 53.8765 11.5364 51.4881C24.1879 39.8915 38.7828 30.5852 54.669 24.0049C72.5281 16.6075 91.6694 12.8 111 12.8C130.331 12.8 149.472 16.6074 167.331 24.0049C183.217 30.5852 197.812 39.8915 210.464 51.4881C213.069 53.8765 217.112 53.8878 219.612 51.3884Z" fill="url(#paint0_angular_1435_6287)"/>
<defs>
<radialGradient id="paint0_angular_1435_6287" cx="0" cy="0" r="1" gradientUnits="userSpaceOnUse" gradientTransform="translate(111 153.88) rotate(90) scale(153.88 160)">
<stop offset="0.37467" stop-color="#00891E"/>
<stop offset="0.455275" stop-color="#04D332"/>
<stop offset="0.568084" stop-color="#FFDC26"/>
<stop offset="0.620321" stop-color="#FF8A00"/>
</radialGradient>
</defs>
</svg>
